<?xml version="1.0" encoding="utf-8"?>
<!-- Generator: Adobe Illustrator 16.0.0, SVG Export Plug-In . SVG Version: 6.00 Build 0)  -->
<!DOCTYPE svg PUBLIC "-//W3C//DTD SVG 1.1//EN" "http://www.w3.org/Graphics/SVG/1.1/DTD/svg11.dtd">
<svg version="1.1" id="Camada_1" xmlns="http://www.w3.org/2000/svg" xmlns:xlink="http://www.w3.org/1999/xlink" x="0px" y="0px"
	 width="152.333px" height="37.556px" viewBox="0 0 152.333 37.556" enable-background="new 0 0 152.333 37.556"
	 xml:space="preserve">
<path fill="#FFFFFF" d="M74.912,22.9c-1.812,0-3.364-0.64-4.645-1.923c-1.282-1.282-1.922-2.832-1.922-4.643s0.64-3.358,1.922-4.641
	c1.28-1.286,2.833-1.926,4.645-1.926c1.81,0,3.356,0.64,4.64,1.926c1.285,1.282,1.925,2.827,1.925,4.641
	c0,1.81-0.639,3.36-1.925,4.643C78.266,22.26,76.722,22.9,74.912,22.9 M74.912,21.589c1.45,0,2.687-0.512,3.713-1.539
	c1.022-1.021,1.539-2.262,1.539-3.713c0-1.453-0.517-2.691-1.539-3.717c-1.026-1.021-2.263-1.538-3.713-1.538
	c-1.452,0-2.694,0.516-3.715,1.538c-1.028,1.026-1.538,2.264-1.538,3.717c0,1.451,0.513,2.693,1.538,3.713
	C72.218,21.077,73.457,21.589,74.912,21.589z M65.126,20.288c-0.185,0.238-0.387,0.463-0.606,0.681
	c-1.285,1.288-2.835,1.932-4.647,1.932c-1.813,0-3.363-0.64-4.643-1.923c-1.282-1.282-1.923-2.832-1.923-4.643
	s0.641-3.358,1.923-4.641c1.279-1.286,2.83-1.926,4.643-1.926c1.812,0,3.357,0.64,4.639,1.926c1.288,1.282,1.928,2.827,1.928,4.641
	V22.9l-1.313-1.312V20.288L65.126,20.288z M59.873,21.589c1.453,0,2.689-0.512,3.715-1.539c1.022-1.021,1.538-2.262,1.538-3.713
	c0-1.453-0.516-2.691-1.538-3.717c-1.025-1.021-2.262-1.538-3.715-1.538s-2.695,0.516-3.715,1.538
	c-1.025,1.026-1.536,2.264-1.536,3.717c0,1.451,0.512,2.693,1.536,3.713C57.178,21.077,58.42,21.589,59.873,21.589z M52.271,21.589
	h1.313l1.312,1.312H52.27c-1.813,0-3.364-0.64-4.646-1.923c-1.279-1.282-1.92-2.832-1.92-4.643V4.516h1.31v5.255h6.567v1.312h-6.567
	v5.254c0,1.452,0.515,2.694,1.539,3.714C49.577,21.077,50.817,21.589,52.271,21.589z M38.354,16.995
	c-1.001,0-1.85-0.354-2.555-1.059c-0.702-0.704-1.059-1.556-1.059-2.556s0.356-1.852,1.059-2.554
	c0.705-0.703,1.554-1.057,2.555-1.057h5.581v1.312h-5.581c-0.634,0-1.175,0.228-1.623,0.676c-0.452,0.455-0.676,0.992-0.676,1.623
	c0,0.632,0.224,1.171,0.676,1.622c0.448,0.449,0.989,0.676,1.623,0.676h1.968c1.001,0,1.853,0.351,2.553,1.06
	c0.705,0.702,1.063,1.554,1.063,2.55c0,1.001-0.354,1.852-1.063,2.556c-0.7,0.701-1.556,1.059-2.553,1.059h-5.578V21.59h5.578
	c0.632,0,1.171-0.225,1.622-0.678c0.452-0.449,0.677-0.99,0.677-1.621c0-0.628-0.225-1.171-0.677-1.617
	c-0.454-0.452-0.99-0.675-1.622-0.675h-1.968V16.995z M21.714,16.995c0.132,1.169,0.628,2.192,1.497,3.057
	c1.022,1.028,2.263,1.538,3.716,1.538s2.689-0.511,3.715-1.538c0.523-0.522,0.913-1.105,1.17-1.742H33.2
	c-0.295,0.985-0.839,1.876-1.628,2.662c-1.286,1.288-2.838,1.932-4.646,1.932c-1.813,0-3.362-0.64-4.644-1.922
	C21,19.698,20.36,18.148,20.36,16.338s0.64-3.358,1.922-4.641c1.281-1.286,2.83-1.926,4.644-1.926c1.809,0,3.355,0.64,4.638,1.926
	c1.288,1.282,1.928,2.827,1.928,4.641c0,0.218-0.009,0.438-0.027,0.66H21.712v-0.003H21.714z M32.139,15.679
	c-0.128-1.174-0.629-2.195-1.495-3.062c-1.027-1.02-2.264-1.537-3.715-1.537c-1.453,0-2.695,0.516-3.717,1.537
	c-0.87,0.866-1.366,1.888-1.497,3.062H32.139z M17.144,20.288c-0.184,0.238-0.386,0.463-0.605,0.681
	c-1.286,1.288-2.837,1.932-4.649,1.932c-1.814,0-3.362-0.64-4.644-1.923c-1.282-1.282-1.92-2.832-1.92-4.643s0.638-3.358,1.92-4.641
	c1.281-1.286,2.832-1.926,4.644-1.926c1.813,0,3.356,0.64,4.64,1.926c1.286,1.282,1.928,2.827,1.928,4.641v5.254
	c0,1.809-0.64,3.361-1.928,4.642c-1.28,1.282-2.827,1.925-4.64,1.925c-1.814,0-3.355-0.646-4.632-1.933l0.917-0.919
	c1.021,1.028,2.266,1.537,3.715,1.537c1.453,0,2.689-0.51,3.716-1.537c1.022-1.022,1.539-2.265,1.539-3.715V20.288L17.144,20.288z
	 M57.441,7.821h5.23v0.903h-5.23V7.821z M11.889,11.083c-1.449,0-2.693,0.516-3.715,1.538c-1.025,1.026-1.535,2.263-1.535,3.716
	c0,1.452,0.51,2.694,1.535,3.714c1.023,1.028,2.266,1.538,3.715,1.538c1.453,0,2.691-0.511,3.716-1.538
	c1.022-1.021,1.541-2.262,1.541-3.714c0-1.453-0.516-2.69-1.541-3.716C14.578,11.597,13.342,11.083,11.889,11.083z"/>
<path opacity="0.5" fill="#FFFFFF" d="M139.678,16.995c-0.998,0-1.852-0.354-2.557-1.059c-0.701-0.704-1.055-1.556-1.055-2.556
	s0.354-1.852,1.055-2.554c0.705-0.703,1.559-1.057,2.557-1.057h5.58v1.312h-5.58c-0.635,0-1.174,0.228-1.623,0.676
	c-0.453,0.455-0.676,0.992-0.676,1.623c0,0.632,0.223,1.171,0.676,1.622c0.451,0.449,0.992,0.676,1.623,0.676h1.969
	c1,0,1.854,0.351,2.553,1.06c0.705,0.702,1.063,1.554,1.063,2.55c0,1.001-0.355,1.852-1.063,2.556
	c-0.699,0.701-1.553,1.059-2.553,1.059h-5.58V21.59h5.58c0.635,0,1.17-0.225,1.621-0.678c0.453-0.449,0.68-0.99,0.68-1.621
	c0-0.628-0.227-1.171-0.68-1.617c-0.451-0.452-0.988-0.675-1.621-0.675h-1.969V16.995z M123.042,16.995
	c0.131,1.169,0.629,2.192,1.494,3.057c1.023,1.028,2.266,1.538,3.719,1.538c1.449,0,2.689-0.511,3.715-1.538
	c0.523-0.522,0.916-1.105,1.17-1.742h1.389c-0.295,0.985-0.838,1.876-1.627,2.662c-1.287,1.288-2.836,1.932-4.646,1.932
	s-3.363-0.64-4.646-1.922c-1.281-1.283-1.92-2.833-1.92-4.644s0.639-3.358,1.92-4.641c1.283-1.286,2.832-1.926,4.646-1.926
	c1.809,0,3.357,0.64,4.639,1.926c1.285,1.282,1.926,2.827,1.926,4.641c0,0.218-0.01,0.438-0.027,0.66h-11.75V16.995L123.042,16.995z
	 M133.465,15.679c-0.131-1.174-0.633-2.195-1.492-3.062c-1.029-1.02-2.268-1.537-3.719-1.537s-2.693,0.516-3.717,1.537
	c-0.867,0.866-1.365,1.888-1.496,3.062H133.465z M120.651,21.589h1.311l1.313,1.312h-2.625c-1.813,0-3.365-0.64-4.646-1.923
	c-1.279-1.282-1.922-2.832-1.922-4.643V4.516h1.313v5.255h6.566v1.312h-6.566v5.254c0,1.452,0.514,2.694,1.539,3.714
	C117.959,21.077,119.198,21.589,120.651,21.589z M111.499,21.589c0,1.809-0.639,3.361-1.926,4.642
	c-1.283,1.282-2.826,1.925-4.641,1.925c-1.811,0-3.357-0.646-4.634-1.933l0.918-0.919c1.023,1.028,2.263,1.537,3.716,1.537
	c1.451,0,2.689-0.51,3.717-1.537c1.02-1.022,1.539-2.265,1.539-3.715v-1.301c-0.184,0.238-0.389,0.463-0.607,0.681
	c-1.285,1.288-2.834,1.932-4.648,1.932c-1.811,0-3.361-0.64-4.643-1.923c-1.282-1.282-1.922-2.832-1.922-4.643V9.77h1.313v6.565
	c0,1.452,0.508,2.694,1.536,3.714c1.023,1.028,2.263,1.537,3.716,1.537c1.451,0,2.689-0.51,3.717-1.537
	c1.02-1.021,1.539-2.262,1.539-3.714v-5.251l1.311-1.312V21.589L111.499,21.589z M84.669,12.381
	c0.185-0.232,0.389-0.466,0.619-0.695c1.276-1.278,2.823-1.917,4.635-1.917c1.811,0,3.356,0.64,4.642,1.926
	c1.284,1.282,1.923,2.827,1.923,4.641c0,1.81-0.639,3.36-1.923,4.643c-1.285,1.282-2.826,1.923-4.642,1.923
	c-1.812,0-3.361-0.64-4.644-1.923c-1.283-1.282-1.923-2.832-1.923-4.643V4.516l1.313,1.313V12.381z M89.923,21.589
	c1.45,0,2.689-0.512,3.716-1.539c1.02-1.021,1.536-2.262,1.536-3.713c0-1.453-0.517-2.691-1.536-3.717
	c-1.026-1.021-2.266-1.538-3.716-1.538c-1.452,0-2.697,0.516-3.718,1.538c-1.025,1.026-1.538,2.264-1.538,3.717
	c0,1.451,0.513,2.693,1.538,3.713C87.226,21.077,88.471,21.589,89.923,21.589z"/>
<path opacity="0.5" fill="#FFFFFF" d="M72.501,30.379c-0.389,0-0.72-0.14-0.993-0.41c-0.273-0.273-0.41-0.604-0.41-0.991
	c0-0.391,0.139-0.721,0.41-0.994c0.273-0.275,0.604-0.411,0.993-0.411h2.166v0.511h-2.166c-0.246,0-0.457,0.09-0.631,0.264
	c-0.177,0.176-0.264,0.386-0.264,0.632c0,0.245,0.087,0.456,0.264,0.628c0.174,0.174,0.385,0.264,0.631,0.264h0.762
	c0.388,0,0.717,0.137,0.994,0.412c0.272,0.273,0.41,0.603,0.41,0.988c0,0.391-0.141,0.72-0.41,0.993
	c-0.276,0.273-0.606,0.408-0.994,0.408h-2.165v-0.508h2.165c0.245,0,0.455-0.089,0.63-0.264c0.177-0.174,0.264-0.386,0.264-0.631
	c0-0.244-0.087-0.456-0.264-0.629c-0.175-0.175-0.382-0.262-0.63-0.262H72.501z M65.031,30.379c0.05,0.456,0.243,0.852,0.582,1.187
	c0.395,0.397,0.878,0.599,1.439,0.599c0.561,0,1.045-0.2,1.441-0.599c0.208-0.204,0.353-0.429,0.455-0.675h0.537
	c-0.112,0.382-0.324,0.729-0.631,1.032c-0.498,0.5-1.103,0.749-1.803,0.749c-0.701,0-1.308-0.247-1.801-0.744
	c-0.499-0.5-0.748-1.101-0.748-1.803c0-0.703,0.249-1.303,0.748-1.8c0.498-0.499,1.1-0.75,1.801-0.75c0.7,0,1.305,0.251,1.8,0.75
	c0.499,0.498,0.748,1.097,0.748,1.8c0,0.086-0.001,0.17-0.009,0.257L65.031,30.379L65.031,30.379z M69.078,29.869
	c-0.049-0.457-0.245-0.854-0.58-1.187c-0.397-0.396-0.879-0.599-1.441-0.599s-1.046,0.202-1.44,0.599
	c-0.337,0.335-0.529,0.73-0.581,1.187H69.078z M61.059,30.122v2.55h-0.513v-2.55c0-0.702,0.249-1.302,0.749-1.799
	c0.498-0.498,1.1-0.749,1.799-0.749h1.02l-0.511,0.51h-0.51c-0.564,0-1.045,0.202-1.442,0.599
	C61.256,29.078,61.059,29.559,61.059,30.122z M58.032,31.658c-0.07,0.093-0.147,0.181-0.233,0.265c-0.498,0.5-1.1,0.749-1.805,0.749
	c-0.702,0-1.306-0.247-1.802-0.744c-0.499-0.5-0.746-1.101-0.746-1.803c0-0.703,0.247-1.303,0.746-1.8
	c0.496-0.499,1.1-0.75,1.802-0.75c0.705,0,1.304,0.251,1.801,0.75c0.5,0.498,0.749,1.097,0.749,1.8v2.549l-0.512-0.509V31.658z
	 M55.994,32.161c0.563,0,1.047-0.198,1.444-0.597c0.395-0.396,0.596-0.881,0.596-1.443s-0.201-1.044-0.596-1.44
	c-0.397-0.396-0.882-0.598-1.444-0.598s-1.044,0.202-1.44,0.598c-0.398,0.396-0.598,0.879-0.598,1.44
	c0,0.564,0.199,1.047,0.598,1.443C54.95,31.963,55.432,32.161,55.994,32.161z M47.589,30.631v-3.059h0.51v3.059
	c0,0.422,0.152,0.782,0.45,1.08c0.296,0.301,0.658,0.45,1.08,0.45c0.421,0,0.78-0.149,1.079-0.45c0.301-0.299,0.45-0.66,0.45-1.08
	v-2.55l0.51-0.51v3.059c0,0.563-0.197,1.045-0.595,1.442c-0.396,0.397-0.879,0.596-1.442,0.596s-1.045-0.198-1.441-0.596
	c-0.14-0.14-0.253-0.286-0.342-0.444c-0.088,0.155-0.2,0.305-0.339,0.444c-0.396,0.397-0.879,0.596-1.441,0.596
	c-0.564,0-1.046-0.198-1.443-0.596c-0.395-0.397-0.597-0.88-0.597-1.442v-3.059h0.513v3.059c0,0.421,0.151,0.782,0.449,1.079
	c0.301,0.301,0.659,0.45,1.079,0.45c0.424,0,0.782-0.149,1.081-0.45C47.44,31.413,47.589,31.052,47.589,30.631z M42.608,32.161
	h0.511l0.511,0.51h-1.019c-0.7,0-1.305-0.248-1.8-0.745c-0.499-0.5-0.747-1.1-0.747-1.804v-4.588h0.513v2.038h2.547v0.511h-2.547
	v2.038c0,0.564,0.197,1.047,0.596,1.443C41.564,31.963,42.048,32.161,42.608,32.161z M37.654,25.534h1.019l-0.51,0.512h-0.509
	c-0.566,0-1.05,0.202-1.444,0.598c-0.397,0.397-0.596,0.881-0.596,1.44v0.512h2.549v0.511h-2.549v3.567h-0.51v-4.59
	c0-0.701,0.248-1.302,0.744-1.799C36.35,25.785,36.952,25.534,37.654,25.534z M30.789,32.671c-0.701,0-1.306-0.248-1.801-0.745
	c-0.499-0.5-0.749-1.1-0.749-1.804c0-0.702,0.25-1.302,0.749-1.799c0.497-0.498,1.1-0.749,1.801-0.749
	c0.703,0,1.305,0.251,1.802,0.749c0.5,0.499,0.748,1.097,0.748,1.799c0,0.704-0.248,1.307-0.748,1.804
	C32.092,32.423,31.491,32.671,30.789,32.671z M30.789,32.161c0.565,0,1.045-0.198,1.442-0.597c0.397-0.396,0.597-0.881,0.597-1.443
	s-0.199-1.044-0.597-1.44c-0.397-0.396-0.879-0.598-1.442-0.598s-1.043,0.202-1.44,0.598c-0.399,0.396-0.597,0.879-0.597,1.44
	c0,0.564,0.197,1.047,0.597,1.443C29.743,31.963,30.225,32.161,30.789,32.161z M24.587,30.379c-0.39,0-0.718-0.14-0.992-0.41
	c-0.273-0.273-0.41-0.604-0.41-0.991c0-0.391,0.137-0.721,0.41-0.994c0.274-0.275,0.604-0.411,0.992-0.411h2.166v0.511h-2.166
	c-0.245,0-0.456,0.09-0.63,0.264c-0.175,0.176-0.262,0.386-0.262,0.632c0,0.245,0.087,0.456,0.262,0.628
	c0.174,0.174,0.385,0.264,0.63,0.264h0.765c0.389,0,0.718,0.137,0.99,0.412c0.274,0.273,0.411,0.603,0.411,0.988
	c0,0.391-0.138,0.72-0.411,0.993s-0.604,0.408-0.99,0.408h-2.167v-0.508h2.167c0.243,0,0.454-0.089,0.628-0.264
	c0.177-0.174,0.263-0.386,0.263-0.631c0-0.244-0.087-0.456-0.263-0.629c-0.177-0.175-0.385-0.262-0.628-0.262H24.587z"/>
</svg>
