<?xml version="1.0" encoding="utf-8"?>
<!-- Generator: Adobe Illustrator 16.0.0, SVG Export Plug-In . SVG Version: 6.00 Build 0)  -->
<!DOCTYPE svg PUBLIC "-//W3C//DTD SVG 1.1//EN" "http://www.w3.org/Graphics/SVG/1.1/DTD/svg11.dtd">
<svg version="1.1" id="Camada_1" xmlns="http://www.w3.org/2000/svg" xmlns:xlink="http://www.w3.org/1999/xlink" x="0px" y="0px"
	 width="52.662px" height="52.125px" viewBox="0 0 52.662 52.125" enable-background="new 0 0 52.662 52.125" xml:space="preserve">
<rect y="0.076" fill="#00BCD4" width="52.851" height="52.049"/>
<g opacity="0.8">
	<g>
		<path fill="#1A171B" d="M23.748,37.994c-1.113,1.112-2.454,1.664-4.025,1.664c-1.575,0.003-2.919-0.552-4.023-1.664l-0.996,0.994
			c1.385,1.394,3.058,2.095,5.02,2.095c1.96,0,3.637-0.695,5.025-2.084c0.164-0.164,0.319-0.343,0.465-0.521l-1.005-1.007
			C24.064,37.649,23.91,37.825,23.748,37.994z"/>
		<circle fill="#1A171B" cx="19.638" cy="28.441" r="1.208"/>
		<g>
			<path fill="#1A171B" d="M19.636,21.313c-3.937,0-7.124,3.192-7.124,7.131c0,3.938,3.189,7.126,7.124,7.126
				c3.937,0,7.13-3.188,7.13-7.126C26.766,24.505,23.573,21.313,19.636,21.313z M19.636,34.183c-3.167,0-5.738-2.567-5.738-5.738
				c0-3.171,2.571-5.743,5.738-5.743c3.172,0,5.744,2.571,5.744,5.743C25.38,31.615,22.808,34.183,19.636,34.183z"/>
		</g>
	</g>
	<g>
		<path fill="#1A171B" d="M32.566,30.475c0.67,0,1.206,0.541,1.206,1.207c0,0.67-0.536,1.21-1.206,1.21
			c-0.669,0-1.209-0.54-1.209-1.21C31.356,31.016,31.896,30.475,32.566,30.475z"/>
		<g>
			<path fill="#1A171B" d="M32.564,24.554c-3.937,0-7.128,3.193-7.128,7.129c0,3.939,3.193,7.126,7.128,7.126
				s7.128-3.188,7.128-7.126C39.692,27.747,36.499,24.554,32.564,24.554z M32.564,37.426c-3.169,0-5.738-2.567-5.738-5.738
				c0-3.173,2.569-5.742,5.738-5.742c3.17,0,5.74,2.569,5.74,5.742C38.305,34.858,35.734,37.426,32.564,37.426z"/>
		</g>
		<polygon fill="#1A171B" points="25.437,18.876 25.437,31.927 26.787,32.07 26.787,20.336 		"/>
	</g>
</g>
</svg>
