<?xml version="1.0" encoding="utf-8"?>
<!-- Generator: Adobe Illustrator 16.0.0, SVG Export Plug-In . SVG Version: 6.00 Build 0)  -->
<!DOCTYPE svg PUBLIC "-//W3C//DTD SVG 1.1//EN" "http://www.w3.org/Graphics/SVG/1.1/DTD/svg11.dtd">
<svg version="1.1" id="Camada_1" xmlns="http://www.w3.org/2000/svg" xmlns:xlink="http://www.w3.org/1999/xlink" x="0px" y="0px"
	 width="204.333px" height="27.445px" viewBox="0 0 204.333 27.445" enable-background="new 0 0 204.333 27.445"
	 xml:space="preserve">
<path fill="#00ABBD" d="M150.874,17.12c-1.242,0-2.307-0.439-3.185-1.318c-0.879-0.879-1.317-1.942-1.317-3.183
	c0-1.241,0.438-2.303,1.317-3.182c0.878-0.882,1.942-1.32,3.185-1.32c1.24,0,2.301,0.438,3.18,1.32
	c0.881,0.879,1.32,1.939,1.32,3.182c0,1.24-0.438,2.304-1.32,3.183C153.172,16.681,152.114,17.12,150.874,17.12 M150.874,16.22
	c0.994,0,1.842-0.35,2.545-1.054c0.701-0.7,1.055-1.551,1.055-2.546c0-0.996-0.354-1.845-1.055-2.548
	c-0.703-0.7-1.551-1.055-2.545-1.055c-0.996,0-1.848,0.354-2.547,1.055c-0.705,0.703-1.055,1.552-1.055,2.548
	c0,0.995,0.352,1.847,1.055,2.546C149.026,15.87,149.875,16.22,150.874,16.22z M144.165,15.329
	c-0.127,0.163-0.266,0.317-0.416,0.467c-0.881,0.882-1.944,1.324-3.187,1.324s-2.306-0.439-3.183-1.318
	c-0.879-0.879-1.318-1.942-1.318-3.183c0-1.241,0.439-2.303,1.318-3.182c0.877-0.882,1.941-1.32,3.183-1.32s2.302,0.438,3.181,1.32
	c0.883,0.879,1.321,1.939,1.321,3.182v4.501l-0.899-0.9V15.329L144.165,15.329z M140.563,16.22c0.996,0,1.844-0.35,2.547-1.054
	c0.701-0.7,1.055-1.551,1.055-2.546c0-0.996-0.354-1.845-1.055-2.548c-0.703-0.7-1.551-1.055-2.547-1.055s-1.848,0.354-2.547,1.055
	c-0.703,0.703-1.053,1.552-1.053,2.548c0,0.995,0.351,1.847,1.053,2.546C138.715,15.87,139.567,16.22,140.563,16.22z M135.351,16.22
	h0.899l0.9,0.9h-1.8c-1.242,0-2.306-0.439-3.185-1.318c-0.877-0.879-1.317-1.942-1.317-3.183V4.516h0.899v3.603h4.502v0.899h-4.502
	v3.603c0,0.995,0.352,1.847,1.055,2.546C133.504,15.87,134.355,16.22,135.351,16.22z M125.81,13.071
	c-0.687,0-1.269-0.242-1.752-0.726c-0.481-0.482-0.726-1.066-0.726-1.751c0-0.686,0.244-1.27,0.726-1.751
	c0.483-0.482,1.065-0.725,1.752-0.725h3.826v0.899h-3.826c-0.435,0-0.806,0.157-1.113,0.464c-0.31,0.312-0.463,0.68-0.463,1.113
	c0,0.433,0.153,0.802,0.463,1.112c0.308,0.307,0.679,0.463,1.113,0.463h1.349c0.686,0,1.27,0.24,1.75,0.726
	c0.483,0.482,0.728,1.066,0.728,1.748c0,0.687-0.243,1.27-0.728,1.752c-0.48,0.481-1.066,0.726-1.75,0.726h-3.824v-0.9h3.824
	c0.434,0,0.803-0.154,1.112-0.464c0.31-0.308,0.464-0.679,0.464-1.112c0-0.43-0.154-0.802-0.464-1.108
	c-0.312-0.311-0.679-0.463-1.112-0.463h-1.349V13.071z M114.402,13.071c0.091,0.802,0.431,1.503,1.026,2.096
	c0.701,0.705,1.552,1.054,2.548,1.054s1.844-0.35,2.547-1.054c0.358-0.359,0.626-0.758,0.802-1.195h0.952
	c-0.202,0.676-0.575,1.287-1.116,1.826c-0.882,0.882-1.945,1.324-3.186,1.324c-1.242,0-2.305-0.439-3.184-1.318
	s-1.317-1.942-1.317-3.183c0-1.241,0.438-2.303,1.317-3.182c0.879-0.882,1.941-1.32,3.184-1.32c1.24,0,2.301,0.438,3.18,1.32
	c0.883,0.879,1.321,1.939,1.321,3.182c0,0.149-0.006,0.301-0.019,0.452h-8.056V13.071z M121.549,12.17
	c-0.088-0.805-0.432-1.505-1.025-2.1c-0.704-0.699-1.552-1.054-2.547-1.054c-0.996,0-1.848,0.354-2.548,1.054
	c-0.597,0.594-0.937,1.295-1.026,2.1H121.549z M111.269,15.329c-0.126,0.163-0.265,0.317-0.415,0.467
	c-0.882,0.882-1.945,1.324-3.188,1.324s-2.305-0.439-3.183-1.318c-0.879-0.879-1.317-1.942-1.317-3.183
	c0-1.241,0.438-2.303,1.317-3.182c0.878-0.882,1.942-1.32,3.183-1.32c1.242,0,2.301,0.438,3.181,1.32
	c0.882,0.879,1.321,1.939,1.321,3.182v3.601c0,1.241-0.438,2.305-1.321,3.183c-0.878,0.879-1.938,1.319-3.181,1.319
	s-2.301-0.443-3.176-1.325l0.629-0.63c0.701,0.705,1.553,1.054,2.547,1.054c0.996,0,1.844-0.35,2.547-1.054
	c0.701-0.701,1.056-1.552,1.056-2.547V15.329z M138.896,6.782h3.586v0.619h-3.586V6.782z M107.667,9.018
	c-0.994,0-1.847,0.354-2.547,1.055c-0.703,0.703-1.053,1.552-1.053,2.548c0,0.995,0.35,1.847,1.053,2.546
	c0.701,0.705,1.553,1.054,2.547,1.054c0.996,0,1.844-0.35,2.547-1.054c0.701-0.7,1.056-1.551,1.056-2.546
	c0-0.996-0.354-1.845-1.056-2.548C109.51,9.371,108.663,9.018,107.667,9.018z"/>
<path fill="#939598" d="M195.275,13.071c-0.685,0-1.269-0.242-1.752-0.726c-0.481-0.482-0.724-1.066-0.724-1.751
	c0-0.686,0.242-1.27,0.724-1.751c0.483-0.482,1.067-0.725,1.752-0.725h3.826v0.899h-3.826c-0.435,0-0.805,0.157-1.112,0.464
	c-0.311,0.312-0.463,0.68-0.463,1.113c0,0.433,0.152,0.802,0.463,1.112c0.309,0.307,0.68,0.463,1.112,0.463h1.351
	c0.685,0,1.269,0.24,1.75,0.726c0.482,0.482,0.727,1.066,0.727,1.748c0,0.687-0.243,1.27-0.727,1.752
	c-0.481,0.481-1.065,0.726-1.75,0.726h-3.826v-0.9h3.826c0.434,0,0.801-0.154,1.111-0.464c0.311-0.308,0.465-0.679,0.465-1.112
	c0-0.43-0.154-0.802-0.465-1.108c-0.311-0.311-0.679-0.463-1.111-0.463h-1.351V13.071z M183.87,13.071
	c0.09,0.802,0.432,1.503,1.024,2.096c0.701,0.705,1.553,1.054,2.549,1.054c0.994,0,1.845-0.35,2.548-1.054
	c0.358-0.359,0.627-0.758,0.801-1.195h0.953c-0.203,0.676-0.574,1.287-1.115,1.826c-0.883,0.882-1.945,1.324-3.187,1.324
	s-2.306-0.439-3.185-1.318s-1.317-1.942-1.317-3.183c0-1.241,0.438-2.303,1.317-3.182c0.879-0.882,1.941-1.32,3.185-1.32
	c1.24,0,2.302,0.438,3.181,1.32c0.881,0.879,1.32,1.939,1.32,3.182c0,0.149-0.007,0.301-0.02,0.452h-8.055V13.071z M191.016,12.17
	c-0.09-0.805-0.434-1.505-1.023-2.1c-0.705-0.699-1.555-1.054-2.549-1.054c-0.996,0-1.848,0.354-2.549,1.054
	c-0.594,0.594-0.936,1.295-1.025,2.1H191.016z M182.231,16.22h0.898l0.9,0.9h-1.8c-1.242,0-2.306-0.439-3.185-1.318
	c-0.877-0.879-1.318-1.942-1.318-3.183V4.516h0.9v3.603h4.502v0.899h-4.502v3.603c0,0.995,0.352,1.847,1.055,2.546
	C180.385,15.87,181.235,16.22,182.231,16.22z M175.956,16.22c0,1.241-0.438,2.305-1.32,3.183c-0.879,0.879-1.938,1.319-3.182,1.319
	c-1.24,0-2.301-0.443-3.177-1.325l0.63-0.63c0.701,0.705,1.551,1.054,2.547,1.054s1.844-0.35,2.549-1.054
	c0.699-0.701,1.054-1.552,1.054-2.547v-0.891c-0.126,0.163-0.265,0.317-0.416,0.467c-0.88,0.882-1.943,1.324-3.187,1.324
	c-1.24,0-2.304-0.439-3.183-1.318s-1.317-1.942-1.317-3.183V8.118h0.899v4.501c0,0.995,0.349,1.847,1.054,2.546
	c0.701,0.705,1.551,1.054,2.547,1.054s1.844-0.35,2.549-1.054c0.699-0.7,1.054-1.551,1.054-2.546V9.018l0.899-0.899V16.22z
	 M157.562,9.908c0.127-0.159,0.267-0.319,0.425-0.477c0.875-0.876,1.936-1.314,3.178-1.314c1.241,0,2.301,0.438,3.181,1.32
	c0.881,0.879,1.319,1.939,1.319,3.182c0,1.24-0.438,2.304-1.319,3.183c-0.88,0.878-1.938,1.318-3.181,1.318
	s-2.305-0.439-3.184-1.318c-0.88-0.879-1.318-1.942-1.318-3.183V4.516l0.899,0.901V9.908z M161.165,16.22
	c0.994,0,1.844-0.35,2.547-1.054c0.699-0.7,1.053-1.551,1.053-2.546c0-0.996-0.354-1.845-1.053-2.548
	c-0.703-0.7-1.553-1.055-2.547-1.055c-0.996,0-1.85,0.354-2.549,1.055c-0.703,0.703-1.055,1.552-1.055,2.548
	c0,0.995,0.352,1.847,1.055,2.546C159.315,15.87,160.168,16.22,161.165,16.22z"/>
<path fill="#939598" d="M149.22,22.247c-0.267,0-0.493-0.096-0.681-0.281c-0.187-0.188-0.281-0.414-0.281-0.68
	c0-0.268,0.095-0.494,0.281-0.682c0.188-0.188,0.414-0.281,0.681-0.281h1.485v0.35h-1.485c-0.169,0-0.313,0.061-0.433,0.18
	c-0.121,0.121-0.18,0.265-0.18,0.434c0,0.168,0.059,0.312,0.18,0.431c0.119,0.119,0.264,0.18,0.433,0.18h0.522
	c0.266,0,0.492,0.094,0.682,0.282c0.187,0.188,0.281,0.414,0.281,0.678c0,0.268-0.096,0.493-0.281,0.681
	c-0.189,0.187-0.416,0.28-0.682,0.28h-1.484v-0.349h1.484c0.168,0,0.312-0.06,0.432-0.18c0.121-0.119,0.181-0.265,0.181-0.433
	c0-0.167-0.06-0.312-0.181-0.43c-0.12-0.121-0.262-0.18-0.432-0.18H149.22z M144.099,22.247c0.034,0.312,0.167,0.584,0.399,0.813
	c0.271,0.273,0.602,0.41,0.987,0.41s0.716-0.136,0.988-0.41c0.142-0.139,0.243-0.294,0.312-0.463h0.369
	c-0.078,0.262-0.223,0.5-0.433,0.708c-0.341,0.343-0.755,0.514-1.236,0.514s-0.896-0.17-1.235-0.511
	c-0.342-0.342-0.512-0.754-0.512-1.235c0-0.482,0.17-0.894,0.512-1.234c0.342-0.342,0.754-0.514,1.235-0.514
	s0.894,0.172,1.234,0.514c0.342,0.341,0.513,0.752,0.513,1.234c0,0.059-0.001,0.116-0.006,0.176L144.099,22.247L144.099,22.247z
	 M146.874,21.897c-0.033-0.313-0.168-0.585-0.398-0.813c-0.273-0.272-0.602-0.41-0.988-0.41c-0.386,0-0.717,0.138-0.988,0.41
	c-0.231,0.229-0.363,0.501-0.398,0.813H146.874z M141.375,22.071v1.748h-0.351v-1.748c0-0.481,0.171-0.893,0.513-1.233
	c0.342-0.342,0.754-0.514,1.234-0.514h0.699l-0.35,0.35h-0.35c-0.387,0-0.716,0.138-0.988,0.41
	C141.511,21.355,141.375,21.685,141.375,22.071z M139.301,23.124c-0.049,0.063-0.102,0.124-0.16,0.181
	c-0.342,0.343-0.754,0.514-1.237,0.514c-0.481,0-0.896-0.17-1.235-0.511c-0.342-0.342-0.512-0.754-0.512-1.235
	c0-0.482,0.17-0.894,0.512-1.234c0.34-0.342,0.754-0.514,1.235-0.514c0.483,0,0.894,0.172,1.234,0.514
	c0.343,0.341,0.514,0.752,0.514,1.234v1.747l-0.351-0.349V23.124z M137.904,23.469c0.386,0,0.718-0.136,0.99-0.41
	c0.271-0.271,0.408-0.603,0.408-0.989c0-0.386-0.138-0.716-0.408-0.987c-0.272-0.272-0.604-0.41-0.99-0.41s-0.716,0.138-0.987,0.41
	c-0.274,0.271-0.41,0.602-0.41,0.987c0,0.387,0.136,0.718,0.41,0.989C137.188,23.333,137.518,23.469,137.904,23.469z M132.141,22.42
	v-2.097h0.35v2.097c0,0.289,0.104,0.536,0.309,0.74c0.203,0.206,0.451,0.309,0.74,0.309s0.535-0.103,0.74-0.309
	c0.206-0.205,0.309-0.452,0.309-0.74v-1.748l0.349-0.35v2.097c0,0.386-0.136,0.717-0.408,0.989s-0.603,0.408-0.989,0.408
	s-0.717-0.136-0.988-0.408c-0.096-0.096-0.174-0.196-0.234-0.305c-0.061,0.107-0.138,0.209-0.232,0.305
	c-0.272,0.272-0.603,0.408-0.989,0.408c-0.386,0-0.716-0.136-0.989-0.408c-0.271-0.272-0.409-0.604-0.409-0.989v-2.097h0.351v2.097
	c0,0.289,0.104,0.536,0.308,0.74c0.206,0.206,0.452,0.309,0.74,0.309c0.29,0,0.536-0.103,0.741-0.309
	C132.04,22.956,132.141,22.709,132.141,22.42z M128.727,23.469h0.35l0.35,0.349h-0.698c-0.481,0-0.894-0.17-1.235-0.511
	c-0.341-0.342-0.511-0.754-0.511-1.236v-3.145h0.351v1.397h1.746v0.35h-1.746v1.397c0,0.387,0.135,0.718,0.408,0.989
	C128.011,23.333,128.342,23.469,128.727,23.469z M125.331,18.926h0.698l-0.35,0.35h-0.349c-0.388,0-0.719,0.139-0.99,0.41
	c-0.272,0.273-0.408,0.604-0.408,0.988v0.35h1.747v0.351h-1.747v2.445h-0.35v-3.146c0-0.481,0.17-0.893,0.51-1.234
	C124.436,19.097,124.849,18.926,125.331,18.926z M120.624,23.818c-0.481,0-0.895-0.17-1.235-0.511
	c-0.341-0.342-0.513-0.754-0.513-1.236c0-0.481,0.172-0.893,0.513-1.233c0.341-0.342,0.754-0.514,1.235-0.514
	c0.482,0,0.894,0.172,1.235,0.514c0.343,0.341,0.513,0.752,0.513,1.233c0,0.482-0.17,0.896-0.513,1.236
	C121.517,23.648,121.105,23.818,120.624,23.818z M120.624,23.469c0.387,0,0.717-0.136,0.989-0.41
	c0.272-0.271,0.409-0.603,0.409-0.989c0-0.386-0.137-0.716-0.409-0.987c-0.272-0.272-0.603-0.41-0.989-0.41
	c-0.386,0-0.715,0.138-0.988,0.41c-0.273,0.271-0.409,0.602-0.409,0.987c0,0.387,0.136,0.718,0.409,0.989
	C119.907,23.333,120.237,23.469,120.624,23.469z M116.372,22.247c-0.267,0-0.492-0.096-0.68-0.281
	c-0.188-0.188-0.281-0.414-0.281-0.68c0-0.268,0.094-0.494,0.281-0.682s0.414-0.281,0.68-0.281h1.485v0.35h-1.485
	c-0.168,0-0.313,0.061-0.432,0.18c-0.12,0.121-0.18,0.265-0.18,0.434c0,0.168,0.06,0.312,0.18,0.431
	c0.119,0.119,0.264,0.18,0.432,0.18h0.524c0.267,0,0.492,0.094,0.679,0.282c0.188,0.188,0.282,0.414,0.282,0.678
	c0,0.268-0.095,0.493-0.282,0.681c-0.188,0.187-0.414,0.28-0.679,0.28h-1.485v-0.349h1.485c0.167,0,0.312-0.06,0.431-0.18
	c0.121-0.119,0.18-0.265,0.18-0.433c0-0.167-0.06-0.312-0.18-0.43c-0.121-0.121-0.264-0.18-0.431-0.18H116.372z"/>
<g>
	<path fill="#939598" d="M9.614,15.793C9.378,15.916,8.856,16.08,8.19,16.08c-1.495,0-2.467-1.015-2.467-2.529
		c0-1.525,1.044-2.631,2.662-2.631c0.532,0,1.003,0.133,1.249,0.256L9.43,11.872c-0.215-0.123-0.553-0.236-1.044-0.236
		c-1.137,0-1.751,0.84-1.751,1.874c0,1.146,0.737,1.853,1.72,1.853c0.512,0,0.85-0.133,1.105-0.245L9.614,15.793z"/>
	<path fill="#939598" d="M10.672,12.568c0-0.583-0.01-1.085-0.041-1.546h0.788l0.031,0.974h0.041
		c0.226-0.666,0.768-1.085,1.372-1.085c0.103,0,0.174,0.01,0.256,0.03v0.851c-0.092-0.021-0.184-0.031-0.307-0.031
		c-0.635,0-1.085,0.481-1.208,1.157c-0.021,0.123-0.041,0.267-0.041,0.42v2.642h-0.891V12.568z"/>
	<path fill="#939598" d="M14.421,13.664c0.021,1.218,0.799,1.72,1.7,1.72c0.645,0,1.034-0.113,1.372-0.256l0.153,0.645
		c-0.317,0.144-0.86,0.308-1.648,0.308c-1.525,0-2.437-1.003-2.437-2.499c0-1.495,0.88-2.672,2.324-2.672
		c1.618,0,2.047,1.423,2.047,2.334c0,0.185-0.02,0.327-0.03,0.42L14.421,13.664L14.421,13.664z M17.063,13.019
		c0.01-0.573-0.235-1.464-1.249-1.464c-0.911,0-1.311,0.839-1.382,1.464H17.063z"/>
	<path fill="#939598" d="M21.796,15.978l-0.071-0.625h-0.031c-0.276,0.39-0.809,0.737-1.516,0.737c-1.003,0-1.515-0.707-1.515-1.423
		c0-1.198,1.065-1.854,2.979-1.843v-0.104c0-0.41-0.113-1.146-1.126-1.146c-0.46,0-0.942,0.144-1.29,0.368l-0.205-0.594
		c0.41-0.266,1.003-0.439,1.628-0.439c1.515,0,1.884,1.033,1.884,2.026v1.854c0,0.43,0.021,0.85,0.082,1.188H21.796z M21.664,13.449
		c-0.983-0.021-2.099,0.152-2.099,1.115c0,0.584,0.389,0.86,0.85,0.86c0.645,0,1.054-0.41,1.198-0.83
		c0.031-0.092,0.051-0.194,0.051-0.287V13.449z"/>
	<path fill="#939598" d="M25.035,9.599v1.423h1.29v0.687h-1.29v2.672c0,0.614,0.174,0.962,0.676,0.962
		c0.236,0,0.41-0.031,0.522-0.062l0.041,0.676c-0.174,0.071-0.451,0.123-0.799,0.123c-0.42,0-0.758-0.134-0.973-0.379
		c-0.256-0.267-0.348-0.707-0.348-1.29v-2.703h-0.768v-0.687h0.768V9.834L25.035,9.599z"/>
	<path fill="#939598" d="M27.782,13.664c0.021,1.218,0.799,1.72,1.7,1.72c0.645,0,1.034-0.113,1.372-0.256l0.153,0.645
		c-0.317,0.144-0.86,0.308-1.648,0.308c-1.525,0-2.437-1.003-2.437-2.499c0-1.495,0.88-2.672,2.324-2.672
		c1.618,0,2.047,1.423,2.047,2.334c0,0.185-0.02,0.327-0.03,0.42L27.782,13.664L27.782,13.664z M30.423,13.019
		c0.01-0.573-0.235-1.464-1.249-1.464c-0.911,0-1.311,0.839-1.382,1.464H30.423z"/>
	<path fill="#939598" d="M36.693,8.708v5.99c0,0.439,0.01,0.941,0.041,1.279h-0.809l-0.041-0.859h-0.021
		c-0.276,0.553-0.88,0.973-1.689,0.973c-1.198,0-2.119-1.014-2.119-2.519c-0.01-1.648,1.014-2.662,2.222-2.662
		c0.758,0,1.27,0.357,1.495,0.758h0.021v-2.96H36.693z M35.792,13.039c0-0.113-0.01-0.267-0.041-0.379
		c-0.133-0.573-0.625-1.044-1.301-1.044c-0.932,0-1.484,0.818-1.484,1.915c0,1.003,0.492,1.833,1.464,1.833
		c0.604,0,1.157-0.399,1.321-1.075c0.03-0.123,0.041-0.246,0.041-0.39V13.039z"/>
	<path fill="#939598" d="M40.323,15.978c0.021-0.338,0.041-0.839,0.041-1.279v-5.99h0.891v3.112h0.021
		c0.317-0.553,0.891-0.911,1.689-0.911c1.229,0,2.099,1.023,2.088,2.528c0,1.771-1.116,2.652-2.222,2.652
		c-0.717,0-1.29-0.277-1.659-0.932h-0.031L41.1,15.977L40.323,15.978L40.323,15.978z M41.254,13.991
		c0,0.112,0.021,0.225,0.041,0.327c0.174,0.625,0.696,1.056,1.352,1.056c0.942,0,1.505-0.769,1.505-1.904
		c0-0.993-0.512-1.843-1.474-1.843c-0.614,0-1.188,0.42-1.372,1.105c-0.021,0.104-0.051,0.226-0.051,0.369L41.254,13.991
		L41.254,13.991z"/>
	<path fill="#939598" d="M46.45,11.022l1.085,2.929c0.113,0.327,0.236,0.717,0.317,1.014h0.021c0.092-0.297,0.195-0.676,0.317-1.034
		l0.983-2.908h0.952l-1.351,3.532c-0.645,1.7-1.085,2.57-1.7,3.104c-0.44,0.389-0.881,0.542-1.106,0.583l-0.225-0.759
		c0.225-0.07,0.522-0.215,0.788-0.439c0.246-0.195,0.553-0.543,0.758-1.003c0.041-0.092,0.072-0.164,0.072-0.215
		c0-0.052-0.021-0.123-0.062-0.235l-1.833-4.566L46.45,11.022L46.45,11.022z"/>
</g>
<g>
	<path fill="#0099B1" d="M81.443,22.791c-1.267,1.266-2.792,1.896-4.583,1.896c-1.792,0.002-3.323-0.63-4.583-1.896l-1.134,1.134
		c1.576,1.587,3.484,2.384,5.717,2.384c2.232,0,4.141-0.791,5.723-2.372c0.191-0.191,0.365-0.391,0.531-0.594l-1.146-1.146
		C81.805,22.401,81.633,22.6,81.443,22.791z"/>
	<circle fill="#58585A" cx="91.488" cy="15.602" r="1.376"/>
	<circle fill="#0099B1" cx="76.763" cy="11.911" r="1.376"/>
	<g>
		<g>
			<path fill="#0099B1" d="M76.762,3.789c-4.483,0-8.118,3.639-8.118,8.124c0,4.487,3.635,8.118,8.118,8.118
				c4.485,0,8.122-3.631,8.122-8.118C84.883,7.428,81.247,3.789,76.762,3.789z M76.762,18.45c-3.61,0-6.538-2.925-6.538-6.538
				c0-3.611,2.928-6.542,6.538-6.542c3.614,0,6.542,2.93,6.542,6.542C83.303,15.526,80.375,18.45,76.762,18.45z"/>
		</g>
	</g>
	<g>
		<g>
			<path fill="#58585A" d="M91.486,7.482c-4.483,0-8.119,3.638-8.119,8.122c0,4.488,3.635,8.119,8.119,8.119
				c4.485,0,8.121-3.631,8.121-8.119C99.607,11.119,95.971,7.482,91.486,7.482z M91.486,22.142c-3.61,0-6.538-2.924-6.538-6.538
				c0-3.612,2.928-6.542,6.538-6.542c3.614,0,6.541,2.93,6.541,6.542C98.027,19.218,95.1,22.142,91.486,22.142z"/>
		</g>
	</g>
	<polygon fill="#58585A" points="83.368,1.014 83.368,15.883 84.908,16.042 84.908,2.678 	"/>
</g>
</svg>
