<?xml version="1.0" encoding="utf-8"?>
<!-- Generator: Adobe Illustrator 16.0.0, SVG Export Plug-In . SVG Version: 6.00 Build 0)  -->
<!DOCTYPE svg PUBLIC "-//W3C//DTD SVG 1.1//EN" "http://www.w3.org/Graphics/SVG/1.1/DTD/svg11.dtd">
<svg version="1.1" id="Camada_1" xmlns="http://www.w3.org/2000/svg" xmlns:xlink="http://www.w3.org/1999/xlink" x="0px" y="0px"
	 width="162.76px" height="53px" viewBox="0 0 162.76 53" enable-background="new 0 0 162.76 53" xml:space="preserve">
<path fill="#1A171B" d="M73.332,9.003c-2.696,0-4.946,1.824-5.644,4.298h11.288C78.278,10.827,76.029,9.003,73.332,9.003z"/>
<path fill="none" stroke="#1A171B" stroke-width="1.5" stroke-miterlimit="10" d="M90.507,13.43H79.313H67.352H56.158
	c-3.573,0-6.469,3.023-6.469,6.75v20.511c0,3.73,2.896,6.753,6.469,6.753h34.349c3.572,0,6.468-3.022,6.468-6.753V20.181
	C96.975,16.453,94.079,13.43,90.507,13.43z"/>
<g>
	<path fill="#1A171B" d="M6.022,40.346V22.562h5.762c2.184,0,3.607,0.089,4.27,0.267c1.019,0.267,1.873,0.847,2.56,1.741
		c0.688,0.894,1.031,2.048,1.031,3.463c0,1.092-0.198,2.01-0.594,2.754c-0.396,0.744-0.9,1.328-1.51,1.753
		c-0.611,0.424-1.231,0.705-1.862,0.843c-0.857,0.17-2.099,0.255-3.724,0.255H9.612v6.708H6.022z M9.612,25.57v5.047h1.965
		c1.415,0,2.361-0.093,2.839-0.279c0.477-0.186,0.851-0.478,1.122-0.873c0.271-0.396,0.406-0.857,0.406-1.383
		c0-0.647-0.19-1.181-0.57-1.602c-0.38-0.42-0.861-0.684-1.443-0.789c-0.429-0.081-1.29-0.122-2.584-0.122H9.612z"/>
	<path fill="#1A171B" d="M20.289,33.723c0-1.133,0.279-2.229,0.837-3.288c0.558-1.059,1.349-1.868,2.372-2.426
		s2.166-0.837,3.427-0.837c1.949,0,3.546,0.633,4.792,1.898c1.245,1.266,1.868,2.865,1.868,4.798c0,1.949-0.629,3.564-1.886,4.846
		c-1.258,1.282-2.841,1.923-4.75,1.923c-1.181,0-2.307-0.267-3.378-0.801c-1.071-0.533-1.886-1.315-2.444-2.347
		C20.568,36.458,20.289,35.202,20.289,33.723z M23.783,33.904c0,1.278,0.303,2.256,0.91,2.936c0.607,0.68,1.354,1.02,2.245,1.02
		c0.889,0,1.635-0.34,2.238-1.02s0.904-1.666,0.904-2.96c0-1.262-0.301-2.231-0.904-2.911s-1.349-1.02-2.238-1.02
		c-0.89,0-1.638,0.34-2.245,1.02C24.086,31.648,23.783,32.627,23.783,33.904z"/>
	<path fill="#1A171B" d="M34.665,27.463h3.178v1.893c0.413-0.647,0.971-1.173,1.674-1.577s1.484-0.606,2.341-0.606
		c1.496,0,2.766,0.586,3.809,1.759c1.043,1.173,1.564,2.807,1.564,4.9c0,2.151-0.525,3.823-1.577,5.017
		c-1.052,1.193-2.325,1.789-3.821,1.789c-0.712,0-1.357-0.142-1.935-0.425c-0.578-0.282-1.187-0.768-1.826-1.455v6.489h-3.409
		V27.463z M38.038,33.686c0,1.448,0.287,2.518,0.861,3.209s1.273,1.037,2.099,1.037c0.792,0,1.451-0.317,1.977-0.952
		s0.789-1.676,0.789-3.124c0-1.351-0.271-2.354-0.813-3.008c-0.542-0.655-1.213-0.982-2.014-0.982c-0.833,0-1.524,0.321-2.074,0.964
		S38.038,32.425,38.038,33.686z"/>
</g>
<g>
	<path fill="#1A171B" d="M100.772,40.346V22.562h3.494l7.279,11.876V22.562h3.336v17.784h-3.604l-7.169-11.597v11.597H100.772z"/>
	<path fill="#1A171B" d="M124.622,36.245l3.397,0.57c-0.438,1.246-1.127,2.194-2.068,2.845c-0.942,0.651-2.121,0.977-3.536,0.977
		c-2.24,0-3.898-0.731-4.974-2.195c-0.85-1.173-1.274-2.652-1.274-4.44c0-2.135,0.559-3.807,1.675-5.016
		c1.115-1.209,2.526-1.813,4.233-1.813c1.917,0,3.429,0.633,4.537,1.898c1.107,1.266,1.638,3.204,1.589,5.816h-8.54
		c0.024,1.011,0.299,1.798,0.825,2.359c0.525,0.563,1.181,0.844,1.965,0.844c0.533,0,0.982-0.146,1.347-0.438
		C124.161,37.361,124.437,36.893,124.622,36.245z M124.816,32.801c-0.024-0.987-0.279-1.737-0.764-2.251
		c-0.485-0.513-1.076-0.77-1.771-0.77c-0.744,0-1.358,0.271-1.844,0.813s-0.724,1.277-0.716,2.208H124.816z"/>
	<path fill="#1A171B" d="M131.891,40.346l-4.076-12.883h3.312l2.414,8.443l2.22-8.443h3.287l2.147,8.443l2.463-8.443h3.36
		l-4.137,12.883h-3.275l-2.22-8.285l-2.184,8.285H131.891z"/>
	<path fill="#1A171B" d="M146.121,36.67l3.421-0.521c0.146,0.663,0.44,1.167,0.886,1.511c0.444,0.344,1.067,0.515,1.868,0.515
		c0.881,0,1.545-0.161,1.989-0.484c0.299-0.227,0.449-0.53,0.449-0.91c0-0.259-0.081-0.473-0.243-0.643
		c-0.17-0.162-0.55-0.312-1.14-0.449c-2.75-0.606-4.493-1.16-5.229-1.662c-1.02-0.695-1.528-1.662-1.528-2.899
		c0-1.115,0.44-2.054,1.322-2.813c0.881-0.761,2.248-1.141,4.1-1.141c1.764,0,3.073,0.287,3.931,0.861s1.447,1.423,1.771,2.547
		l-3.215,0.595c-0.138-0.501-0.398-0.886-0.782-1.152c-0.385-0.267-0.933-0.4-1.645-0.4c-0.897,0-1.54,0.126-1.929,0.376
		c-0.259,0.178-0.388,0.408-0.388,0.691c0,0.243,0.113,0.449,0.34,0.619c0.307,0.227,1.368,0.546,3.184,0.958
		s3.083,0.918,3.804,1.517c0.711,0.606,1.067,1.451,1.067,2.535c0,1.181-0.493,2.195-1.48,3.045
		c-0.986,0.849-2.446,1.273-4.379,1.273c-1.755,0-3.144-0.355-4.167-1.067S146.437,37.892,146.121,36.67z"/>
</g>
<g>
	<path fill="#1A171B" d="M62.65,40.345V25.568h-5.277V22.56h14.132v3.008h-5.265v14.776H62.65z"/>
	<path fill="#1A171B" d="M78.856,40.345L72.5,22.56h3.894l4.5,13.162L85.25,22.56h3.808l-6.368,17.785H78.856z"/>
</g>
<line fill="none" stroke="#1A171B" stroke-width="1.5" stroke-miterlimit="10" x1="71.719" y1="12.875" x2="63.904" y2="4.947"/>
<line fill="none" stroke="#1A171B" stroke-width="1.5" stroke-miterlimit="10" x1="75.542" y1="13.043" x2="86.265" y2="-1.849"/>
</svg>
