<?xml version="1.0" encoding="utf-8"?>
<!-- Generator: Adobe Illustrator 16.0.0, SVG Export Plug-In . SVG Version: 6.00 Build 0)  -->
<!DOCTYPE svg PUBLIC "-//W3C//DTD SVG 1.1//EN" "http://www.w3.org/Graphics/SVG/1.1/DTD/svg11.dtd">
<svg version="1.1" id="Camada_1" xmlns="http://www.w3.org/2000/svg" xmlns:xlink="http://www.w3.org/1999/xlink" x="0px" y="0px"
	 width="52.662px" height="52.125px" viewBox="0 0 52.662 52.125" enable-background="new 0 0 52.662 52.125" xml:space="preserve">
<g>
	<path fill="#0099B1" d="M23.748,37.994c-1.113,1.111-2.454,1.664-4.025,1.664c-1.575,0.003-2.919-0.553-4.023-1.664l-0.996,0.994
		c1.385,1.394,3.058,2.095,5.02,2.095c1.96,0,3.637-0.694,5.025-2.084c0.164-0.164,0.319-0.343,0.465-0.521l-1.005-1.008
		C24.064,37.648,23.91,37.825,23.748,37.994z"/>
	<circle fill="#0099B1" cx="19.638" cy="28.44" r="1.208"/>
	<g>
		<path fill="#0099B1" d="M19.636,21.313c-3.937,0-7.124,3.192-7.124,7.13s3.189,7.127,7.124,7.127c3.938,0,7.13-3.188,7.13-7.127
			S23.573,21.313,19.636,21.313z M19.636,34.184c-3.167,0-5.738-2.567-5.738-5.738c0-3.171,2.571-5.743,5.738-5.743
			c3.172,0,5.744,2.571,5.744,5.743C25.38,31.615,22.808,34.184,19.636,34.184z"/>
	</g>
</g>
<g>
	<path fill="#58585A" d="M32.565,30.475c0.67,0,1.207,0.541,1.207,1.207c0,0.67-0.537,1.211-1.207,1.211
		c-0.668,0-1.209-0.541-1.209-1.211C31.356,31.016,31.896,30.475,32.565,30.475z"/>
	<g>
		<path fill="#58585A" d="M32.563,24.554c-3.937,0-7.127,3.193-7.127,7.129c0,3.938,3.193,7.125,7.127,7.125
			c3.936,0,7.129-3.188,7.129-7.125C39.692,27.747,36.499,24.554,32.563,24.554z M32.563,37.426c-3.168,0-5.737-2.566-5.737-5.738
			s2.569-5.742,5.737-5.742c3.17,0,5.74,2.57,5.74,5.742C38.306,34.857,35.733,37.426,32.563,37.426z"/>
	</g>
	<polygon fill="#58585A" points="25.437,18.876 25.437,31.927 26.787,32.07 26.787,20.336 	"/>
</g>
</svg>
