<?xml version="1.0" encoding="utf-8"?>
<!-- Generator: Adobe Illustrator 16.0.0, SVG Export Plug-In . SVG Version: 6.00 Build 0)  -->
<!DOCTYPE svg PUBLIC "-//W3C//DTD SVG 1.1//EN" "http://www.w3.org/Graphics/SVG/1.1/DTD/svg11.dtd">
<svg version="1.1" id="Camada_1" xmlns="http://www.w3.org/2000/svg" xmlns:xlink="http://www.w3.org/1999/xlink" x="0px" y="0px"
	 width="503px" height="359px" viewBox="0 0 503 359" enable-background="new 0 0 503 359" xml:space="preserve">
<g>
	<path fill="#0099B1" d="M249.62,287.976c-5.891,0-10.937-2.086-15.103-6.257c-4.169-4.166-6.255-9.21-6.255-15.101
		s2.086-10.92,6.255-15.088c4.166-4.186,9.212-6.27,15.103-6.27c5.885,0,10.917,2.084,15.09,6.27
		c4.183,4.168,6.269,9.197,6.269,15.088s-2.086,10.935-6.269,15.101C260.537,285.89,255.505,287.976,249.62,287.976 M249.62,283.707
		c4.724,0,8.745-1.662,12.084-5.003c3.324-3.324,4.999-7.361,4.999-12.086s-1.675-8.745-4.999-12.085
		c-3.34-3.324-7.36-4.999-12.084-4.999c-4.727,0-8.764,1.675-12.088,4.999c-3.338,3.34-5,7.36-5,12.085s1.662,8.762,5,12.086
		C240.856,282.045,244.893,283.707,249.62,283.707z M217.792,279.479c-0.6,0.77-1.257,1.512-1.972,2.212
		c-4.183,4.185-9.227,6.285-15.117,6.285c-5.888,0-10.934-2.086-15.103-6.257c-4.173-4.166-6.257-9.21-6.257-15.101
		s2.084-10.92,6.257-15.088c4.169-4.186,9.215-6.27,15.103-6.27c5.891,0,10.92,2.084,15.089,6.27
		c4.185,4.168,6.27,9.197,6.27,15.088v21.357l-4.27-4.269V279.479z M200.703,283.707c4.723,0,8.749-1.662,12.086-5.003
		c3.324-3.324,5.003-7.361,5.003-12.086s-1.679-8.745-5.003-12.085c-3.337-3.324-7.363-4.999-12.086-4.999
		s-8.763,1.675-12.083,4.999c-3.341,3.34-5.003,7.36-5.003,12.085s1.662,8.762,5.003,12.086
		C191.94,282.045,195.98,283.707,200.703,283.707z M175.972,283.707h4.273l4.271,4.269h-8.545c-5.891,0-10.933-2.086-15.104-6.257
		c-4.168-4.166-6.253-9.21-6.253-15.101v-38.443h4.271v17.086h21.358v4.273h-21.358v17.084c0,4.725,1.66,8.762,5.001,12.086
		C167.212,282.045,171.25,283.707,175.972,283.707z M130.703,268.763c-3.25,0-6.021-1.151-8.311-3.439
		c-2.29-2.293-3.439-5.061-3.439-8.313s1.149-6.024,3.439-8.311c2.29-2.29,5.061-3.439,8.311-3.439h18.15v4.273h-18.15
		c-2.056,0-3.82,0.741-5.276,2.197c-1.473,1.475-2.202,3.222-2.202,5.279c0,2.055,0.729,3.804,2.202,5.278
		c1.456,1.456,3.221,2.199,5.276,2.199h6.398c3.25,0,6.022,1.14,8.313,3.442c2.288,2.292,3.439,5.06,3.439,8.298
		c0,3.25-1.151,6.018-3.439,8.306c-2.29,2.288-5.063,3.441-8.313,3.441h-18.148v-4.269h18.148c2.056,0,3.807-0.729,5.277-2.204
		c1.475-1.456,2.203-3.222,2.203-5.274c0-2.041-0.729-3.809-2.203-5.265c-1.471-1.473-3.222-2.201-5.277-2.201H130.703z
		 M76.582,268.763c0.422,3.804,2.041,7.128,4.868,9.941c3.324,3.341,7.361,5.003,12.088,5.003c4.723,0,8.745-1.662,12.086-5.003
		c1.703-1.706,2.974-3.601,3.802-5.672h4.522c-0.964,3.208-2.727,6.108-5.293,8.658c-4.186,4.185-9.231,6.285-15.117,6.285
		c-5.891,0-10.937-2.086-15.103-6.257c-4.171-4.166-6.255-9.21-6.255-15.101s2.084-10.92,6.255-15.088
		c4.166-4.186,9.212-6.27,15.103-6.27c5.886,0,10.92,2.084,15.088,6.27c4.184,4.168,6.27,9.197,6.27,15.088
		c0,0.715-0.028,1.43-0.091,2.145H76.582z M110.492,264.488c-0.424-3.816-2.056-7.143-4.868-9.955
		c-3.341-3.324-7.363-4.999-12.086-4.999c-4.727,0-8.764,1.675-12.088,4.999c-2.827,2.813-4.446,6.139-4.868,9.955H110.492z
		 M61.705,279.479c-0.593,0.77-1.25,1.512-1.967,2.212c-4.183,4.185-9.227,6.285-15.119,6.285c-5.886,0-10.933-2.086-15.101-6.257
		c-4.169-4.166-6.257-9.21-6.257-15.101s2.088-10.92,6.257-15.088c4.168-4.186,9.215-6.27,15.101-6.27
		c5.893,0,10.92,2.084,15.091,6.27c4.187,4.168,6.271,9.197,6.271,15.088v17.089c0,5.886-2.085,10.932-6.271,15.103
		c-4.171,4.171-9.198,6.253-15.091,6.253c-5.886,0-10.918-2.099-15.074-6.282l2.993-2.988c3.319,3.335,7.36,4.999,12.081,4.999
		c4.725,0,8.751-1.664,12.088-4.999c3.324-3.326,4.998-7.367,4.998-12.085V279.479z M192.791,238.928h17.018v2.938h-17.018V238.928z
		 M44.619,249.534c-4.721,0-8.762,1.675-12.081,4.999c-3.341,3.34-5.003,7.36-5.003,12.085s1.662,8.762,5.003,12.086
		c3.319,3.341,7.36,5.003,12.081,5.003c4.725,0,8.751-1.662,12.088-5.003c3.324-3.324,4.998-7.361,4.998-12.086
		s-1.674-8.745-4.998-12.085C53.37,251.209,49.343,249.534,44.619,249.534z"/>
	<path fill="#58585A" d="M460.303,268.763c-3.248,0-6.021-1.151-8.313-3.439c-2.29-2.293-3.441-5.061-3.441-8.313
		s1.151-6.024,3.441-8.311c2.292-2.29,5.064-3.439,8.313-3.439h18.152v4.273h-18.152c-2.06,0-3.821,0.741-5.279,2.197
		c-1.47,1.475-2.199,3.222-2.199,5.279c0,2.055,0.729,3.804,2.199,5.278c1.458,1.456,3.22,2.199,5.279,2.199h6.398
		c3.255,0,6.021,1.14,8.313,3.442c2.286,2.292,3.441,5.06,3.441,8.298c0,3.25-1.155,6.018-3.441,8.306
		c-2.292,2.288-5.058,3.441-8.313,3.441h-18.152v-4.269h18.152c2.054,0,3.805-0.729,5.281-2.204
		c1.469-1.456,2.199-3.222,2.199-5.274c0-2.041-0.73-3.809-2.199-5.265c-1.477-1.473-3.228-2.201-5.281-2.201H460.303z
		 M406.184,268.763c0.422,3.804,2.038,7.128,4.87,9.941c3.318,3.341,7.359,5.003,12.084,5.003c4.723,0,8.745-1.662,12.083-5.003
		c1.708-1.706,2.979-3.601,3.805-5.672h4.524c-0.968,3.208-2.729,6.108-5.291,8.658c-4.189,4.185-9.237,6.285-15.121,6.285
		c-5.891,0-10.935-2.086-15.105-6.257c-4.172-4.166-6.252-9.21-6.252-15.101s2.08-10.92,6.252-15.088
		c4.171-4.186,9.215-6.27,15.105-6.27c5.884,0,10.922,2.084,15.088,6.27c4.184,4.168,6.27,9.197,6.27,15.088
		c0,0.715-0.033,1.43-0.093,2.145H406.184z M440.09,264.488c-0.42-3.816-2.054-7.143-4.869-9.955
		c-3.338-3.324-7.36-4.999-12.083-4.999c-4.725,0-8.766,1.675-12.084,4.999c-2.832,2.813-4.448,6.139-4.87,9.955H440.09z
		 M398.406,283.707h4.27l4.275,4.269h-8.545c-5.891,0-10.938-2.086-15.104-6.257c-4.167-4.166-6.253-9.21-6.253-15.101v-38.443
		h4.275v17.086h21.352v4.273h-21.352v17.084c0,4.725,1.658,8.762,4.992,12.086C389.647,282.045,393.684,283.707,398.406,283.707z
		 M368.636,283.707c0,5.886-2.087,10.932-6.27,15.103c-4.173,4.171-9.204,6.253-15.089,6.253c-5.893,0-10.924-2.099-15.078-6.282
		l2.988-2.988c3.322,3.335,7.365,4.999,12.09,4.999c4.723,0,8.743-1.664,12.084-4.999c3.324-3.326,4.998-7.367,4.998-12.085v-4.229
		c-0.595,0.77-1.254,1.512-1.967,2.212c-4.183,4.185-9.23,6.285-15.115,6.285c-5.893,0-10.938-2.086-15.106-6.257
		c-4.171-4.166-6.257-9.21-6.257-15.101v-21.357h4.273v21.357c0,4.725,1.666,8.762,5,12.086c3.322,3.341,7.365,5.003,12.09,5.003
		c4.723,0,8.743-1.662,12.084-5.003c3.324-3.324,4.998-7.361,4.998-12.086v-17.084l4.276-4.273V283.707z M281.359,253.759
		c0.601-0.754,1.271-1.517,2.012-2.26c4.154-4.154,9.186-6.238,15.078-6.238c5.884,0,10.916,2.084,15.089,6.27
		c4.183,4.168,6.269,9.197,6.269,15.088s-2.086,10.935-6.269,15.101c-4.173,4.171-9.205,6.257-15.089,6.257
		c-5.893,0-10.935-2.086-15.106-6.257c-4.171-4.166-6.253-9.21-6.253-15.101v-38.443l4.27,4.271V253.759z M298.449,283.707
		c4.717,0,8.743-1.662,12.084-5.003c3.323-3.324,4.998-7.361,4.998-12.086s-1.675-8.745-4.998-12.085
		c-3.341-3.324-7.367-4.999-12.084-4.999c-4.725,0-8.768,1.675-12.09,4.999c-3.334,3.34-5,7.36-5,12.085s1.666,8.762,5,12.086
		C289.682,282.045,293.725,283.707,298.449,283.707z"/>
	<path fill="#58585A" d="M241.779,312.3c-1.267,0-2.338-0.445-3.228-1.335c-0.89-0.888-1.334-1.965-1.334-3.226
		c0-1.265,0.444-2.339,1.334-3.225c0.89-0.89,1.961-1.339,3.228-1.339h7.042v1.66h-7.042c-0.801,0-1.484,0.288-2.051,0.853
		c-0.571,0.572-0.855,1.252-0.855,2.051c0,0.795,0.284,1.475,0.855,2.048c0.566,0.568,1.25,0.856,2.051,0.856h2.479
		c1.265,0,2.338,0.44,3.228,1.335c0.888,0.888,1.335,1.963,1.335,3.221c0,1.261-0.447,2.336-1.335,3.224
		c-0.89,0.892-1.963,1.337-3.228,1.337h-7.041v-1.66l7.041,0.004c0.8,0,1.481-0.284,2.052-0.857c0.57-0.563,0.853-1.25,0.853-2.047
		c0-0.795-0.282-1.479-0.853-2.047s-1.252-0.853-2.052-0.853H241.779z M217.489,312.3c0.162,1.477,0.788,2.768,1.887,3.859
		c1.291,1.298,2.858,1.94,4.693,1.94c1.831,0,3.396-0.643,4.689-1.94c0.663-0.663,1.155-1.396,1.479-2.2h1.753
		c-0.373,1.244-1.059,2.373-2.056,3.359c-1.62,1.625-3.579,2.441-5.865,2.441c-2.29,0-4.247-0.808-5.863-2.429
		c-1.623-1.619-2.431-3.577-2.431-5.863c0-2.282,0.808-4.239,2.431-5.857c1.616-1.623,3.573-2.435,5.863-2.435
		c2.286,0,4.238,0.812,5.857,2.435c1.621,1.618,2.433,3.575,2.433,5.857c0,0.275-0.011,0.556-0.033,0.832H217.489z M230.651,310.644
		c-0.164-1.485-0.801-2.776-1.893-3.868c-1.293-1.289-2.858-1.939-4.689-1.939c-1.835,0-3.402,0.65-4.693,1.939
		c-1.099,1.092-1.725,2.383-1.887,3.868H230.651z M204.552,311.468v8.292h-1.658v-8.292c0-2.282,0.81-4.239,2.429-5.857
		c1.616-1.623,3.577-2.435,5.863-2.435h3.316l-1.658,1.66h-1.658c-1.835,0-3.4,0.65-4.693,1.939
		C205.199,308.073,204.552,309.635,204.552,311.468z M194.72,316.46c-0.231,0.296-0.486,0.587-0.767,0.858
		c-1.619,1.625-3.579,2.441-5.865,2.441c-2.288,0-4.243-0.808-5.861-2.429c-1.619-1.619-2.429-3.577-2.429-5.863
		c0-2.282,0.81-4.239,2.429-5.857c1.618-1.623,3.573-2.435,5.861-2.435c2.286,0,4.24,0.812,5.857,2.435
		c1.623,1.618,2.435,3.575,2.435,5.857v8.292l-1.66-1.66V316.46z M188.088,318.1c1.833,0,3.394-0.643,4.691-1.94
		c1.289-1.289,1.94-2.854,1.94-4.691c0-1.833-0.651-3.395-1.94-4.692c-1.298-1.289-2.858-1.939-4.691-1.939s-3.398,0.65-4.692,1.939
		c-1.295,1.298-1.939,2.859-1.939,4.692c0,1.837,0.645,3.402,1.939,4.691C184.69,317.457,186.255,318.1,188.088,318.1z
		 M160.746,313.127v-9.951h1.662v9.951c0,1.368,0.485,2.538,1.46,3.514c0.966,0.973,2.136,1.459,3.512,1.459
		c1.369,0,2.539-0.486,3.516-1.459c0.972-0.976,1.458-2.146,1.458-3.514v-8.291l1.66-1.66v9.951c0,1.834-0.651,3.398-1.94,4.692
		c-1.297,1.295-2.858,1.94-4.693,1.94c-1.84,0-3.402-0.646-4.694-1.94c-0.457-0.453-0.823-0.936-1.109-1.444
		c-0.293,0.509-0.661,0.991-1.114,1.444c-1.294,1.295-2.854,1.94-4.688,1.94c-1.836,0-3.402-0.646-4.692-1.94
		c-1.297-1.294-1.939-2.858-1.939-4.692v-9.951h1.655v9.951c0,1.368,0.488,2.538,1.461,3.514c0.974,0.973,2.146,1.459,3.516,1.459
		c1.369,0,2.541-0.486,3.514-1.459C160.259,315.665,160.746,314.495,160.746,313.127z M144.551,318.1h1.657l1.658,1.66h-3.315
		c-2.288,0-4.247-0.808-5.866-2.429c-1.616-1.619-2.428-3.577-2.428-5.863v-14.924h1.66v6.632h8.291v1.66h-8.291v6.632
		c0,1.837,0.643,3.402,1.939,4.691C141.146,317.457,142.713,318.1,144.551,318.1z M128.431,296.544h3.315l-1.66,1.66h-1.655
		c-1.833,0-3.403,0.65-4.692,1.939c-1.297,1.298-1.939,2.859-1.939,4.692v1.655h8.287v1.66h-8.287v11.608h-1.66v-14.924
		c0-2.288,0.812-4.239,2.426-5.857C124.184,297.359,126.145,296.544,128.431,296.544z M106.097,319.76
		c-2.286,0-4.245-0.808-5.864-2.429c-1.618-1.619-2.426-3.577-2.426-5.863c0-2.282,0.808-4.239,2.426-5.857
		c1.619-1.623,3.578-2.435,5.864-2.435s4.238,0.812,5.857,2.435c1.625,1.618,2.434,3.575,2.434,5.857
		c0,2.286-0.809,4.244-2.434,5.863C110.335,318.952,108.383,319.76,106.097,319.76z M106.097,318.1c1.835,0,3.396-0.643,4.693-1.94
		c1.289-1.289,1.94-2.854,1.94-4.691c0-1.833-0.651-3.395-1.94-4.692c-1.298-1.289-2.858-1.939-4.693-1.939
		c-1.836,0-3.402,0.65-4.694,1.939c-1.295,1.298-1.939,2.859-1.939,4.692c0,1.837,0.645,3.402,1.939,4.691
		C102.695,317.457,104.261,318.1,106.097,318.1z M85.921,312.3c-1.265,0-2.34-0.445-3.228-1.335
		c-0.888-0.888-1.337-1.965-1.337-3.226c0-1.265,0.449-2.339,1.337-3.225c0.888-0.89,1.963-1.339,3.228-1.339h7.046v1.66h-7.046
		c-0.795,0-1.483,0.288-2.047,0.853c-0.577,0.572-0.857,1.252-0.857,2.051c0,0.795,0.28,1.475,0.857,2.048
		c0.563,0.568,1.252,0.856,2.047,0.856h2.483c1.261,0,2.338,0.44,3.228,1.335c0.886,0.888,1.335,1.963,1.335,3.221
		c0,1.261-0.449,2.336-1.335,3.224c-0.89,0.888-1.967,1.337-3.228,1.337h-7.048v-1.66h7.048c0.8,0,1.479-0.28,2.05-0.855
		c0.572-0.562,0.854-1.248,0.854-2.045c0-0.795-0.282-1.479-0.854-2.047c-0.57-0.568-1.25-0.853-2.05-0.853H85.921z"/>
</g>
<g>
	<path fill="#0099B1" d="M233.384,172.374c-8.251,8.242-18.19,12.345-29.854,12.345c-11.67,0.013-21.645-4.103-29.855-12.345
		l-7.386,7.384c10.263,10.337,22.694,15.522,37.241,15.522c14.54,0,26.975-5.151,37.271-15.446c1.251-1.251,2.377-2.55,3.461-3.872
		l-7.462-7.466C235.747,169.828,234.626,171.126,233.384,172.374z"/>
	<path fill="#58585A" d="M307.775,125.544c0,4.951-4.011,8.962-8.968,8.962c-4.947,0-8.957-4.011-8.957-8.962
		c0-4.948,4.01-8.965,8.957-8.965C303.765,116.579,307.775,120.596,307.775,125.544z"/>
	<path fill="#0099B1" d="M211.868,101.501c0,4.952-4.017,8.96-8.97,8.96c-4.944,0-8.957-4.008-8.957-8.96
		c0-4.947,4.013-8.966,8.957-8.966C207.851,92.535,211.868,96.554,211.868,101.501z"/>
	<g>
		<g>
			<path fill="#0099B1" d="M202.894,48.6c-29.205,0-52.882,23.698-52.882,52.912c0,29.225,23.677,52.88,52.882,52.88
				c29.215,0,52.9-23.655,52.9-52.88C255.794,72.298,232.109,48.6,202.894,48.6z M202.896,144.098
				c-23.521,0-42.592-19.051-42.592-42.591c0-23.525,19.071-42.613,42.592-42.613c23.537,0,42.606,19.087,42.606,42.613
				C245.502,125.047,226.433,144.098,202.896,144.098z"/>
		</g>
	</g>
	<g>
		<g>
			<path fill="#58585A" d="M298.806,72.645c-29.205,0-52.883,23.698-52.883,52.91c0,29.225,23.678,52.883,52.883,52.883
				c29.213,0,52.898-23.658,52.898-52.883C351.704,96.343,328.019,72.645,298.806,72.645z M298.806,168.142
				c-23.518,0-42.59-19.05-42.59-42.589c0-23.526,19.072-42.614,42.59-42.614c23.537,0,42.606,19.087,42.606,42.614
				C341.412,149.091,322.343,168.142,298.806,168.142z"/>
		</g>
	</g>
	<polygon fill="#58585A" points="245.922,30.52 245.922,127.363 255.956,128.415 255.956,41.358 	"/>
</g>
</svg>
